<svg width="244" height="267" viewBox="0 0 244 267" fill="none" xmlns="http://www.w3.org/2000/svg">
<path d="M13.0256 45.1463C31.0104 12.2251 70.3076 2.2166 87.7081 1.32753C99.164 -0.155043 135.645 1.32753 164.045 31.0633C186.765 54.8519 187.344 95.0206 184.794 112.131C184.058 115.156 182.243 121.794 180.87 124.148C179.497 126.502 180.298 131.832 180.87 134.203L220.381 216.09C220.635 226.1 234.463 232.462 238.11 234.244C241.758 236.025 244.048 249.853 243.794 257.233C243.59 263.137 239.92 264.67 238.11 264.698L178.05 266.225C174.827 266.281 167.056 266.259 161.763 265.716C155.146 265.037 153.026 251.973 153.704 245.187C154.247 239.758 158.511 234.611 160.575 232.717C161.688 230.524 163.381 224.918 161.247 220.04C159.114 215.163 137.75 206.069 127.335 202.132C123.779 200.227 114.99 197.102 108.284 199.846C101.578 202.589 97.1069 222.073 95.7098 231.471L103.33 237.187C109.732 257.61 102.187 263.986 97.6149 264.621H49.2237C48.2077 265.51 43.8893 265.993 34.7445 260.811C25.5997 255.629 27.3779 244.427 29.41 239.473C31.3152 236.425 36.5735 230.1 42.3652 229.185C48.1568 228.271 51.891 222.708 53.0341 220.04L70.1806 180.413C30.1721 175.46 5.78599 127.83 5.02393 122.496C4.26186 117.162 -9.45532 86.2979 13.0256 45.1463Z" fill="#FF0000"/>
<path d="M18.427 48.0336C34.6334 18.3676 70.0449 9.34876 85.7248 8.54759C96.048 7.21162 128.922 8.5476 154.514 35.3431C174.987 56.7795 175.509 92.9762 173.211 108.395C172.548 111.121 170.912 117.102 169.675 119.223C168.437 121.345 169.159 126.148 169.675 128.284L173.211 141.178L212.877 226.605L221.472 236.39L229.737 242.341L231.721 249.765V256.132H159.65V240.027L162.956 236.39L166.923 226.605V218.207L156.675 205.975L121.434 189.496C118.229 187.78 110.309 184.964 104.266 187.436L97.8635 193.082L86.5826 227.762L89.1515 233.18L96.4115 238.347L97.8635 249.765L94.7361 256.132H36.4329L33.3405 248.62L35.1555 238.347L49.2459 233.18L56.2082 226.605L74.5257 177.758L69.8566 172.702C33.8042 168.238 11.9032 122.542 11.2165 117.735C10.5298 112.928 -1.83104 85.116 18.427 48.0336Z" fill="#002159" stroke="#002159" stroke-width="2.13902" stroke-linejoin="round"/>
<path d="M21.2236 49.5747C36.5308 21.5546 69.9776 13.0362 84.7876 12.2795C94.538 11.0176 125.588 12.2795 149.76 37.5883C169.097 57.8354 174.541 98.0634 164.257 116.8L162.686 107.903C165.632 106.01 170.293 99.2868 165.369 87.5455L145.485 85.8096C145.5 75.3568 139.681 50.2126 116.289 33.258C87.0496 12.0647 69.1035 25.9986 60.8973 29.6283C52.691 33.258 32.9645 59.2971 35.4895 84.2315C38.0145 109.166 43.2223 127.472 55.0582 138.203C66.8942 148.935 78.8879 163.453 107.452 157.299C111.976 157.193 123.139 154.3 131.597 143.569C132.86 144.148 135.259 147.104 134.754 154.3C127.442 157.982 110.135 165.694 99.4036 167.083C88.6723 168.472 75.2428 166.075 69.8695 164.703C35.8173 160.487 15.0617 119.949 14.4131 115.409C13.7645 110.869 2.08949 84.5998 21.2236 49.5747Z" fill="white"/>
<path d="M157.402 95.9546L109.637 94.4712L106.966 99.8114L109.637 102.778V109.899L106.966 119.392L104.296 130.37L99.8461 139.27L95.3958 145.797L97.1759 149.061H104.296L109.637 145.797L113.79 133.633L119.13 116.129L122.394 102.778H128.328L131.888 121.766L154.436 174.872L156.258 182.883L144.645 177.246L130.404 171.905L119.13 169.532L109.637 171.905L97.1759 174.872H85.3086L56.2337 240.736L42.5863 244.296L40.2129 249.043H88.5721L81.7484 240.736L77.8916 225.901L95.3958 182.883H115.867L138.118 188.816L160.963 200.09L175.5 221.155V236.879L168.38 249.043H223.563L216.442 240.736L207.542 233.319L204.872 225.901L154.436 113.459V99.8114H157.402V95.9546Z" fill="white"/>
<path d="M96.2076 116.129L82.0418 141.214L67.3017 130.37L58.4959 113.459L53.1359 99.8114L50.6473 83.2109L53.1359 70.5765L58.4959 54.6879L75.8237 39.7563L100.993 40.7135L112.862 51.6657L128.328 65.7908L131.888 80.9142H111.713H100.993L92.7618 90.1024V101.588L96.2076 116.129Z" fill="white"/>
<path d="M157.402 95.9546L109.637 94.4712L106.966 99.8114L109.637 102.778V109.899L106.966 119.392L104.296 130.37L99.8461 139.27L95.3958 145.797L97.1759 149.061H104.296L109.637 145.797L113.79 133.633L119.13 116.129L122.394 102.778H128.328L131.888 121.766L154.436 174.872L156.258 182.883L144.645 177.246L130.404 171.905L119.13 169.532L109.637 171.905L97.1759 174.872H85.3086L56.2337 240.736L42.5863 244.296L40.2129 249.043H88.5721L81.7484 240.736L77.8916 225.901L95.3958 182.883H115.867L138.118 188.816L160.963 200.09L175.5 221.155V236.879L168.38 249.043H223.563L216.442 240.736L207.542 233.319L204.872 225.901L154.436 113.459V99.8114H157.402V95.9546Z" stroke="white" stroke-width="1.5099" stroke-linejoin="round"/>
<path d="M96.2076 116.129L82.0418 141.214L67.3017 130.37L58.4959 113.459L53.1359 99.8114L50.6473 83.2109L53.1359 70.5765L58.4959 54.6879L75.8237 39.7563L100.993 40.7135L112.862 51.6657L128.328 65.7908L131.888 80.9142H111.713H100.993L92.7618 90.1024V101.588L96.2076 116.129Z" stroke="white" stroke-width="1.5099" stroke-linejoin="round"/>
<path fill-rule="evenodd" clip-rule="evenodd" d="M46.0805 61.0835L43.0513 72.9479V83.2976L44.5659 97.4339L47.5951 108.289L50.8767 117.629L56.9351 127.978L67.5373 138.076L76.3725 144.891L83.693 147.921L91.7709 138.076L99.3439 117.629V112.832V106.017L96.0622 100.968V92.3852L99.3439 87.589L109.189 86.0744H132.413L136.199 83.2976L134.685 72.9479L130.393 62.3457L125.092 53.2581L115.247 42.6559L99.3439 33.3159L88.2368 31.2964H76.3725L65.013 36.8499L56.9351 42.6559L50.8767 50.7337L46.0805 61.0835ZM55.1681 100.968V68.4041L58.4497 59.3165L65.013 50.7337L76.3725 40.384L85.4601 38.3645L97.8293 40.384L109.189 47.7045L122.82 62.3457L132.413 75.9771L130.393 79.2587L101.363 80.5209L91.7709 90.1133V103.492L96.0622 110.308V117.629L86.7222 136.309L81.6736 141.105L73.8481 134.289L67.5373 126.716L56.9351 110.308L55.1681 100.968Z" fill="#FF0000" stroke="#FF0000" stroke-width="1.5099" stroke-linejoin="round"/>
</svg>
